<svg id="visual" viewBox="0 0 960 540" width="960" height="540" xmlns="http://www.w3.org/2000/svg" xmlns:xlink="http://www.w3.org/1999/xlink" version="1.1"><rect x="0" y="0" width="960" height="540" fill="#111111"></rect><defs><linearGradient id="grad1_0" x1="43.8%" y1="0%" x2="100%" y2="100%"><stop offset="14.444444444444446%" stop-color="#00a6fb" stop-opacity="1"></stop><stop offset="85.55555555555554%" stop-color="#00a6fb" stop-opacity="1"></stop></linearGradient></defs><defs><linearGradient id="grad1_1" x1="43.8%" y1="0%" x2="100%" y2="100%"><stop offset="14.444444444444446%" stop-color="#00a6fb" stop-opacity="1"></stop><stop offset="85.55555555555554%" stop-color="#111111" stop-opacity="1"></stop></linearGradient></defs><defs><linearGradient id="grad2_0" x1="0%" y1="0%" x2="56.3%" y2="100%"><stop offset="14.444444444444446%" stop-color="#00a6fb" stop-opacity="1"></stop><stop offset="85.55555555555554%" stop-color="#00a6fb" stop-opacity="1"></stop></linearGradient></defs><defs><linearGradient id="grad2_1" x1="0%" y1="0%" x2="56.3%" y2="100%"><stop offset="14.444444444444446%" stop-color="#111111" stop-opacity="1"></stop><stop offset="85.55555555555554%" stop-color="#00a6fb" stop-opacity="1"></stop></linearGradient></defs><g transform="translate(960, 0)"><path d="M0 432C-14.8 404.4 -29.7 376.8 -50.3 381.7C-70.8 386.6 -97.2 424.1 -111.8 417.3C-126.4 410.4 -129.3 359.2 -137.8 332.6C-146.2 305.9 -160.2 303.8 -169.5 293.6C-178.8 283.3 -183.2 264.9 -200.9 261.8C-218.6 258.7 -249.4 270.8 -268 268C-286.6 265.2 -292.8 247.5 -305.4 234.4C-318 221.2 -337 212.6 -339.5 196C-342 179.4 -328.1 154.9 -334.4 138.5C-340.8 122.2 -367.4 114 -373.8 100.2C-380.2 86.3 -366.5 66.7 -372.8 49.1C-379.1 31.4 -405.6 15.7 -432 0L0 0Z" fill="#28567c"></path><path d="M0 216C-7.4 202.2 -14.8 188.4 -25.1 190.9C-35.4 193.3 -48.6 212.1 -55.9 208.6C-63.2 205.2 -64.7 179.6 -68.9 166.3C-73.1 153 -80.1 151.9 -84.7 146.8C-89.4 141.7 -91.6 132.5 -100.4 130.9C-109.3 129.3 -124.7 135.4 -134 134C-143.3 132.6 -146.4 123.8 -152.7 117.2C-159 110.6 -168.5 106.3 -169.7 98C-171 89.7 -164 77.4 -167.2 69.3C-170.4 61.1 -183.7 57 -186.9 50.1C-190.1 43.1 -183.2 33.4 -186.4 24.5C-189.6 15.7 -202.8 7.9 -216 0L0 0Z" fill="#00a6fb"></path></g><g transform="translate(0, 540)"><path d="M0 -432C10.7 -367.2 21.4 -302.3 39.8 -302.4C58.2 -302.5 84.4 -367.4 102.5 -382.5C120.6 -397.6 130.6 -362.8 144.3 -348.3C158 -333.8 175.4 -339.5 200 -346.4C224.6 -353.3 256.2 -361.5 263 -342.7C269.8 -323.9 251.7 -278.2 258.8 -258.8C265.9 -239.4 298.3 -246.3 299.9 -230.1C301.5 -213.9 272.3 -174.5 267.6 -154.5C262.9 -134.5 282.6 -133.8 311.3 -129C340.1 -124.2 377.9 -115.2 368 -98.6C358.2 -82 300.7 -57.7 303.4 -39.9C306.1 -22.2 369.1 -11.1 432 0L0 0Z" fill="#28567c"></path><path d="M0 -216C5.3 -183.6 10.7 -151.2 19.9 -151.2C29.1 -151.2 42.2 -183.7 51.2 -191.3C60.3 -198.8 65.3 -181.4 72.1 -174.2C79 -166.9 87.7 -169.7 100 -173.2C112.3 -176.7 128.1 -180.8 131.5 -171.4C134.9 -162 125.8 -139.1 129.4 -129.4C133 -119.7 149.1 -123.2 149.9 -115.1C150.7 -106.9 136.2 -87.3 133.8 -77.3C131.4 -67.2 141.3 -66.9 155.7 -64.5C170 -62.1 188.9 -57.6 184 -49.3C179.1 -41 150.3 -28.8 151.7 -20C153.1 -11.1 184.5 -5.6 216 0L0 0Z" fill="#00a6fb"></path></g></svg>