<svg id="visual" viewBox="0 0 960 540" width="960" height="540" xmlns="http://www.w3.org/2000/svg" xmlns:xlink="http://www.w3.org/1999/xlink" version="1.1"><rect x="0" y="0" width="960" height="540" fill="#111"></rect><g fill="#00a6fb"><circle r="22" cx="99" cy="131"></circle><circle r="2" cx="486" cy="404"></circle><circle r="5" cx="249" cy="403"></circle><circle r="9" cx="414" cy="2"></circle><circle r="14" cx="609" cy="176"></circle><circle r="11" cx="16" cy="48"></circle><circle r="7" cx="245" cy="218"></circle><circle r="9" cx="105" cy="293"></circle><circle r="16" cx="110" cy="24"></circle><circle r="15" cx="281" cy="324"></circle><circle r="18" cx="530" cy="433"></circle><circle r="12" cx="30" cy="216"></circle><circle r="7" cx="25" cy="522"></circle><circle r="16" cx="355" cy="30"></circle><circle r="4" cx="27" cy="401"></circle><circle r="18" cx="575" cy="132"></circle><circle r="1" cx="237" cy="477"></circle><circle r="4" cx="646" cy="386"></circle><circle r="3" cx="160" cy="129"></circle><circle r="10" cx="308" cy="117"></circle><circle r="19" cx="412" cy="421"></circle><circle r="10" cx="707" cy="83"></circle><circle r="1" cx="65" cy="371"></circle><circle r="17" cx="453" cy="440"></circle><circle r="17" cx="183" cy="392"></circle><circle r="16" cx="226" cy="37"></circle><circle r="7" cx="71" cy="454"></circle><circle r="6" cx="874" cy="68"></circle><circle r="14" cx="109" cy="204"></circle><circle r="7" cx="501" cy="306"></circle><circle r="18" cx="844" cy="483"></circle><circle r="7" cx="161" cy="490"></circle><circle r="6" cx="124" cy="424"></circle><circle r="3" cx="182" cy="84"></circle><circle r="8" cx="807" cy="248"></circle><circle r="5" cx="59" cy="11"></circle><circle r="3" cx="269" cy="276"></circle><circle r="2" cx="948" cy="314"></circle><circle r="19" cx="691" cy="191"></circle><circle r="16" cx="531" cy="269"></circle><circle r="1" cx="935" cy="16"></circle><circle r="20" cx="481" cy="171"></circle><circle r="15" cx="708" cy="350"></circle><circle r="8" cx="308" cy="470"></circle><circle r="7" cx="365" cy="257"></circle><circle r="15" cx="926" cy="117"></circle><circle r="16" cx="781" cy="386"></circle><circle r="5" cx="843" cy="102"></circle><circle r="17" cx="411" cy="531"></circle><circle r="7" cx="220" cy="116"></circle><circle r="11" cx="615" cy="277"></circle><circle r="4" cx="324" cy="420"></circle><circle r="11" cx="217" cy="180"></circle><circle r="17" cx="280" cy="511"></circle><circle r="16" cx="721" cy="266"></circle><circle r="10" cx="469" cy="126"></circle><circle r="20" cx="145" cy="52"></circle><circle r="11" cx="768" cy="323"></circle><circle r="20" cx="876" cy="189"></circle><circle r="17" cx="24" cy="103"></circle></g></svg>