<svg id="visual" viewBox="0 0 960 540" width="960" height="540" xmlns="http://www.w3.org/2000/svg" xmlns:xlink="http://www.w3.org/1999/xlink" version="1.1"><rect width="960" height="540" fill="#111"></rect><g><g transform="translate(208 411)"><path d="M13.5 -21.4C18.9 -11.7 25.5 -8.7 32.2 -1.1C39 6.4 45.9 18.5 43 26.1C40.1 33.6 27.3 36.8 15.3 40.4C3.3 44.1 -7.9 48.3 -13.3 43.4C-18.6 38.4 -18.2 24.3 -19 14.9C-19.8 5.4 -21.9 0.6 -25.2 -8.6C-28.5 -17.7 -33 -31.2 -29 -41.1C-25 -51.1 -12.5 -57.6 -4.2 -52.6C4.1 -47.6 8.2 -31.1 13.5 -21.4Z" fill="#00a6fb"></path></g><g transform="translate(360 58)"><path d="M10.6 -14.4C14.1 -9.7 17.6 -6.7 20.6 -1.8C23.7 3.1 26.4 10 24.8 15.7C23.1 21.4 17.1 25.9 11.5 25.2C5.9 24.6 0.6 18.6 -6.1 16.3C-12.8 14.1 -20.9 15.4 -22.7 12.8C-24.6 10.2 -20.1 3.7 -16.5 -0.4C-12.8 -4.6 -9.9 -6.5 -7.3 -11.4C-4.7 -16.2 -2.3 -24.1 0.6 -24.8C3.6 -25.5 7.1 -19.1 10.6 -14.4Z" fill="#00a6fb"></path></g><g transform="translate(196 172)"><path d="M4.9 -6.3C6.9 -4.2 9.4 -3.1 10.4 -1.2C11.5 0.7 11.1 3.4 9.7 5.4C8.3 7.4 6 8.7 3.6 9.4C1.1 10.1 -1.3 10.3 -4.1 9.9C-6.9 9.5 -10 8.5 -10.3 6.6C-10.7 4.7 -8.3 1.8 -7 -0.4C-5.6 -2.7 -5.3 -4.3 -4.3 -6.6C-3.3 -8.9 -1.6 -11.9 -0.1 -11.7C1.5 -11.6 2.9 -8.4 4.9 -6.3Z" fill="#00a6fb"></path></g><g transform="translate(617 466)"><path d="M10 -13C12.1 -10.3 12.1 -6.2 12.3 -2.6C12.4 1 12.6 4.2 11.3 6.4C9.9 8.7 7 9.9 3.5 12.3C0.1 14.6 -3.9 18.1 -6.1 17.1C-8.3 16.2 -8.8 10.8 -10.7 6.6C-12.6 2.5 -15.8 -0.5 -16.8 -4.3C-17.7 -8.2 -16.4 -13.1 -13.2 -15.6C-10 -18.1 -5 -18.3 -0.5 -17.7C4 -17.1 8 -15.7 10 -13Z" fill="#00a6fb"></path></g><g transform="translate(855 409)"><path d="M9.5 -10.9C12.3 -9 14.6 -6 15.1 -2.8C15.5 0.4 14 3.8 11.6 5.4C9.2 7 5.8 6.7 2.9 7.7C0 8.7 -2.4 10.9 -6 11.6C-9.6 12.4 -14.5 11.8 -15.7 9.3C-16.8 6.8 -14.3 2.4 -12.8 -1.6C-11.4 -5.6 -11.1 -9.2 -9.1 -11.3C-7.1 -13.3 -3.6 -13.9 -0.1 -13.8C3.3 -13.6 6.7 -12.8 9.5 -10.9Z" fill="#00a6fb"></path></g><g transform="translate(635 145)"><path d="M15.8 -19.9C19.9 -15.3 22.3 -9.8 25.6 -2.8C28.8 4.2 32.9 12.8 30.1 17.1C27.3 21.5 17.6 21.5 9 24.7C0.4 27.8 -7.1 34 -12.9 33C-18.7 32 -22.8 23.8 -25.2 16.2C-27.7 8.6 -28.4 1.7 -28.6 -6.4C-28.9 -14.6 -28.5 -24.1 -23.6 -28.5C-18.8 -32.9 -9.4 -32.3 -1.8 -30.2C5.8 -28 11.6 -24.4 15.8 -19.9Z" fill="#00a6fb"></path></g><g transform="translate(897 19)"><path d="M6.1 -6.8C8.2 -5.6 10.3 -3.9 10.5 -2C10.7 0 9.1 2.1 7.5 3.8C5.9 5.6 4.4 6.9 2.7 7.4C1 8 -0.9 7.9 -4.9 8.5C-8.9 9.2 -15 10.7 -19 8.6C-23 6.6 -24.9 0.9 -23.2 -3.3C-21.6 -7.6 -16.4 -10.5 -11.9 -11.2C-7.5 -12 -3.7 -10.6 -0.8 -9.6C2 -8.5 4.1 -7.9 6.1 -6.8Z" fill="#00a6fb"></path></g><g transform="translate(376 258)"><path d="M5.5 -4.6C8.2 -4.3 12.3 -3.6 14.1 -1.3C15.9 0.9 15.4 4.8 13.3 7.1C11.3 9.5 7.7 10.4 4.4 11.2C1.1 12.1 -1.9 12.9 -4.6 12.1C-7.2 11.4 -9.5 9.1 -11.4 6.3C-13.4 3.5 -15 0.3 -14.6 -2.6C-14.1 -5.6 -11.6 -8.2 -8.9 -8.6C-6.1 -8.9 -3 -7 -0.8 -6C1.4 -5 2.8 -5 5.5 -4.6Z" fill="#00a6fb"></path></g><g transform="translate(651 291)"><path d="M21.8 -30.3C24.8 -23.5 21.5 -13.3 21.6 -5C21.7 3.4 25.2 10 24.5 16.9C23.8 23.9 18.9 31.2 13 31.4C7.1 31.7 0.3 25 -6.4 21C-13 17.1 -19.5 16 -25 11.8C-30.5 7.6 -35.2 0.3 -36.3 -8.7C-37.5 -17.7 -35.2 -28.4 -28.5 -34.7C-21.9 -40.9 -10.9 -42.7 -0.8 -41.8C9.4 -40.9 18.8 -37.2 21.8 -30.3Z" fill="#00a6fb"></path></g><g transform="translate(399 516)"><path d="M25.8 -32.6C33.4 -24.4 39.4 -16.2 41 -7.3C42.5 1.7 39.5 11.4 35.2 21.5C30.8 31.6 24.9 42 15.6 47.5C6.2 52.9 -6.7 53.3 -16.9 48.7C-27.2 44 -34.8 34.2 -34.7 24.7C-34.6 15.2 -26.8 5.9 -23.4 -2.5C-19.9 -10.9 -20.8 -18.4 -17.7 -27.4C-14.5 -36.3 -7.2 -46.8 0.9 -47.9C9.1 -49 18.3 -40.8 25.8 -32.6Z" fill="#00a6fb"></path></g><g transform="translate(136 25)"><path d="M3.6 -4.7C4.2 -3.8 4 -2.2 3.6 -1.1C3.1 0 2.6 0.6 2.1 1.1C1.6 1.6 1.2 1.9 0.4 3.1C-0.5 4.3 -1.8 6.4 -2.6 6.4C-3.4 6.4 -3.8 4.4 -4.3 2.8C-4.7 1.3 -5.3 0.1 -5.1 -0.9C-5 -2 -4.2 -3 -3.2 -3.8C-2.2 -4.7 -1.1 -5.5 0.2 -5.7C1.5 -6 3 -5.7 3.6 -4.7Z" fill="#00a6fb"></path></g><g transform="translate(5 529)"><path d="M6.7 -8.7C7.6 -7.3 6.3 -4.1 6 -1.7C5.7 0.8 6.4 2.4 5.8 3.2C5.1 4 3.3 4 1.7 4.5C0.1 5 -1.2 6 -2.5 5.9C-3.7 5.9 -4.9 4.7 -6.7 3.1C-8.6 1.5 -11.2 -0.5 -11.3 -2.4C-11.5 -4.3 -9.1 -6.1 -6.8 -7.3C-4.5 -8.5 -2.2 -9 0.4 -9.4C2.9 -9.8 5.9 -10.2 6.7 -8.7Z" fill="#00a6fb"></path></g><g transform="translate(85 298)"><path d="M15.8 -15.6C23.7 -12.1 35.6 -10.3 36.2 -6.5C36.8 -2.6 26.1 3.1 19.2 7.4C12.4 11.8 9.4 14.7 4.7 19.1C0 23.4 -6.4 29.2 -13 29.5C-19.6 29.8 -26.5 24.5 -32.4 17.3C-38.2 10.1 -43 0.8 -41.1 -6.7C-39.1 -14.3 -30.5 -20.2 -22.5 -23.6C-14.6 -27.1 -7.3 -28.2 -1.7 -26.2C3.9 -24.2 7.8 -19.1 15.8 -15.6Z" fill="#00a6fb"></path></g><g transform="translate(869 252)"><path d="M13.1 -18.1C18.2 -11.3 24.3 -8.3 24.6 -4.7C24.9 -1 19.2 3.4 16.5 10.9C13.9 18.5 14.2 29.1 10 33.1C5.8 37 -2.8 34.3 -9.5 30.1C-16.2 25.9 -21 20.4 -25.1 14.1C-29.3 7.8 -32.7 0.7 -31.1 -4.9C-29.5 -10.6 -22.7 -14.8 -16.7 -21.5C-10.6 -28.1 -5.3 -37.2 -0.7 -36.4C4 -35.6 8 -24.9 13.1 -18.1Z" fill="#00a6fb"></path></g><g transform="translate(712 5)"><path d="M10.4 -10.9C13.2 -10 15 -6.5 15.1 -3.1C15.3 0.4 13.7 3.7 11.4 5.4C9 7.1 5.8 7 3 7.9C0.2 8.7 -2.1 10.4 -4.9 10.6C-7.7 10.8 -10.9 9.5 -11.2 7.3C-11.6 5.1 -9 2 -8.4 -1.5C-7.9 -5.1 -9.4 -9 -8.3 -10.1C-7.2 -11.3 -3.6 -9.7 0.1 -9.8C3.8 -9.9 7.6 -11.7 10.4 -10.9Z" fill="#00a6fb"></path></g><g transform="translate(516 59)"><path d="M21.5 -29C26.8 -21.2 29.3 -13.4 32.9 -4.2C36.5 5.1 41.1 15.7 36.8 19.4C32.5 23 19.1 19.5 10.4 18.1C1.7 16.7 -2.5 17.4 -10.1 18.6C-17.7 19.8 -28.8 21.4 -33.8 17.3C-38.9 13.2 -37.9 3.3 -34.6 -4.4C-31.2 -12.2 -25.4 -17.8 -19.3 -25.5C-13.1 -33.2 -6.6 -42.9 0.8 -43.8C8.1 -44.7 16.2 -36.8 21.5 -29Z" fill="#00a6fb"></path></g><g transform="translate(47 150)"><path d="M26.5 -33.3C34.8 -24.7 42.1 -16.7 40 -9.8C37.9 -3 26.3 2.8 20.9 12.1C15.5 21.4 16.4 34.4 11.7 39.2C6.9 44 -3.3 40.6 -10.1 35C-16.9 29.4 -20.1 21.5 -24.1 14.1C-28.1 6.8 -32.8 0.1 -33.7 -7.9C-34.6 -16 -31.9 -25.3 -25.6 -34.2C-19.4 -43.1 -9.7 -51.5 -0.3 -51.2C9.1 -50.9 18.3 -41.8 26.5 -33.3Z" fill="#00a6fb"></path></g><g transform="translate(478 379)"><path d="M8.2 -9.2C12 -6.6 17.5 -5.3 18.1 -3C18.7 -0.7 14.6 2.6 11.4 5.2C8.3 7.8 6.2 9.5 3.2 11.9C0.3 14.3 -3.5 17.3 -5.8 16.3C-8.1 15.3 -8.8 10.4 -11.3 6.4C-13.8 2.3 -18.1 -0.8 -18.7 -4.3C-19.2 -7.8 -16.1 -11.6 -12.3 -14.3C-8.6 -17 -4.3 -18.5 -1.1 -17.2C2.2 -16 4.4 -11.9 8.2 -9.2Z" fill="#00a6fb"></path></g><g transform="translate(955 534)"><path d="M15.6 -14.9C22.3 -13 31.2 -10 31.2 -6C31.3 -2 22.6 3 18.5 11.3C14.4 19.6 15 31.1 10.4 35.9C5.9 40.7 -3.7 38.7 -11.9 34.8C-20.1 30.9 -26.9 25.2 -27.8 18.5C-28.7 11.8 -23.8 4.3 -21.6 -3C-19.4 -10.4 -19.9 -17.4 -16.8 -19.9C-13.7 -22.5 -6.8 -20.5 -1.2 -19.1C4.5 -17.7 8.9 -16.8 15.6 -14.9Z" fill="#00a6fb"></path></g><g transform="translate(775 532)"><path d="M20.5 -22.5C26.2 -19.7 30.1 -12.8 31.3 -5.6C32.5 1.7 31.1 9.4 26.3 12.7C21.4 15.9 13.2 14.7 6.3 17C-0.6 19.4 -6 25.4 -12.4 26.4C-18.8 27.4 -26.1 23.4 -28.4 17.4C-30.7 11.4 -27.9 3.5 -23.6 -1.2C-19.2 -5.9 -13.4 -7.5 -9.2 -10.6C-5 -13.7 -2.5 -18.3 2.5 -21.3C7.4 -24.2 14.8 -25.4 20.5 -22.5Z" fill="#00a6fb"></path></g></g></svg>