<svg id="visual" viewBox="0 0 900 600" width="900" height="600" xmlns="http://www.w3.org/2000/svg" xmlns:xlink="http://www.w3.org/1999/xlink" version="1.1"><rect width="900" height="600" fill="#111111"></rect><g><g transform="translate(80 22)"><path d="M78 -93.9C100.1 -74.5 116.2 -48.9 121.2 -21.2C126.2 6.4 120.2 36.2 105.8 61C91.4 85.9 68.6 105.8 41.4 117.2C14.2 128.6 -17.3 131.4 -44.7 121.8C-72 112.2 -95.2 90.3 -108.8 64.1C-122.3 37.9 -126.3 7.5 -120.3 -20.3C-114.3 -48 -98.4 -73.1 -76.6 -92.5C-54.9 -112 -27.5 -125.8 0.3 -126.1C28 -126.4 56 -113.3 78 -93.9Z" stroke="#00a6fb" fill="none" stroke-width="6"></path></g><g transform="translate(776 526)"><path d="M76.5 -91.9C97.9 -73.2 113.1 -47.9 116.7 -21.5C120.3 5 112.3 32.6 98.3 56.8C84.4 81.1 64.6 102 40.4 110.8C16.1 119.6 -12.5 116.3 -38 106.2C-63.4 96.1 -85.7 79.2 -99.8 56.7C-113.9 34.2 -119.7 6 -114.6 -19.7C-109.5 -45.5 -93.4 -68.8 -72.5 -87.6C-51.5 -106.4 -25.8 -120.6 0.9 -121.7C27.5 -122.7 55.1 -110.6 76.5 -91.9Z" stroke="#00a6fb" fill="none" stroke-width="6"></path></g><g transform="translate(428 249)"><path d="M56 -67.8C71.6 -53.6 82.7 -35.1 86.9 -14.8C91.1 5.4 88.3 27.4 78.3 45.8C68.4 64.3 51.3 79.3 31.8 85.5C12.3 91.7 -9.6 89.2 -29.3 81.6C-49 74 -66.4 61.2 -76.6 44C-86.7 26.9 -89.6 5.3 -86.1 -15.3C-82.6 -35.9 -72.9 -55.5 -57.5 -69.8C-42.1 -84 -21 -92.8 -0.4 -92.3C20.2 -91.8 40.3 -82 56 -67.8Z" stroke="#00a6fb" fill="none" stroke-width="6"></path></g><g transform="translate(148 466)"><path d="M65.9 -79.1C83.5 -63.7 94.6 -41.2 97 -18.4C99.4 4.3 93.1 27.2 81.9 47.9C70.7 68.6 54.6 87.1 34 95.6C13.4 104 -11.6 102.4 -34.1 94.1C-56.6 85.8 -76.6 70.7 -87.5 50.9C-98.3 31.1 -100.2 6.6 -95.5 -16.3C-90.9 -39.2 -79.7 -60.5 -62.7 -76C-45.7 -91.4 -22.9 -101 0.6 -101.8C24.1 -102.6 48.3 -94.4 65.9 -79.1Z" stroke="#00a6fb" fill="none" stroke-width="6"></path></g></g></svg>