<svg id="visual" viewBox="0 0 960 540" width="960" height="540" xmlns="http://www.w3.org/2000/svg" xmlns:xlink="http://www.w3.org/1999/xlink" version="1.1"><g stroke-width="39" stroke-linejoin="bevel"><path d="M489 286L519 288L523 267Z" fill="#2285c6" stroke="#111"></path><path d="M523 267L504 217L489 286Z" fill="#23394e" stroke="#111"></path><path d="M519 288L570 277L523 267Z" fill="#00a6fb" stroke="#111"></path><path d="M523 267L581 252L504 217Z" fill="#00a6fb" stroke="#111"></path><path d="M431 245L437 288L489 286Z" fill="#2775ad" stroke="#111"></path><path d="M489 286L477 378L519 288Z" fill="#00a6fb" stroke="#111"></path><path d="M570 277L581 252L523 267Z" fill="#2775ad" stroke="#111"></path><path d="M575 272L581 252L570 277Z" fill="#1995e0" stroke="#111"></path><path d="M504 217L431 245L489 286Z" fill="#286594" stroke="#111"></path><path d="M408 325L434 311L398 299Z" fill="#111111" stroke="#111"></path><path d="M437 288L434 311L489 286Z" fill="#23394e" stroke="#111"></path><path d="M519 288L584 310L570 277Z" fill="#191e25" stroke="#111"></path><path d="M434 311L438 323L489 286Z" fill="#28567c" stroke="#111"></path><path d="M431 245L425 252L437 288Z" fill="#2775ad" stroke="#111"></path><path d="M429 175L425 246L431 245Z" fill="#1995e0" stroke="#111"></path><path d="M431 245L425 246L425 252Z" fill="#191e25" stroke="#111"></path><path d="M477 378L584 310L519 288Z" fill="#00a6fb" stroke="#111"></path><path d="M570 277L584 310L575 272Z" fill="#23394e" stroke="#111"></path><path d="M575 272L616 269L581 252Z" fill="#28567c" stroke="#111"></path><path d="M553 152L472 186L504 217Z" fill="#111111" stroke="#111"></path><path d="M504 217L453 190L431 245Z" fill="#1e2b39" stroke="#111"></path><path d="M472 186L453 190L504 217Z" fill="#191e25" stroke="#111"></path><path d="M438 323L477 378L489 286Z" fill="#28567c" stroke="#111"></path><path d="M645 337L607 311L631 407Z" fill="#2775ad" stroke="#111"></path><path d="M584 310L616 287L575 272Z" fill="#00a6fb" stroke="#111"></path><path d="M434 311L408 325L438 323Z" fill="#264765" stroke="#111"></path><path d="M438 323L412 349L477 378Z" fill="#286594" stroke="#111"></path><path d="M398 299L434 311L437 288Z" fill="#191e25" stroke="#111"></path><path d="M398 299L437 288L425 252Z" fill="#1995e0" stroke="#111"></path><path d="M374 257L425 252L425 246Z" fill="#1e2b39" stroke="#111"></path><path d="M374 257L398 299L425 252Z" fill="#286594" stroke="#111"></path><path d="M616 287L616 269L575 272Z" fill="#1995e0" stroke="#111"></path><path d="M581 252L572 172L504 217Z" fill="#191e25" stroke="#111"></path><path d="M607 311L616 287L584 310Z" fill="#1e2b39" stroke="#111"></path><path d="M330 356L412 349L408 325Z" fill="#264765" stroke="#111"></path><path d="M408 325L412 349L438 323Z" fill="#264765" stroke="#111"></path><path d="M592 176L572 172L581 252Z" fill="#111111" stroke="#111"></path><path d="M616 287L629 268L616 269Z" fill="#111111" stroke="#111"></path><path d="M616 269L633 187L581 252Z" fill="#111111" stroke="#111"></path><path d="M662 282L629 268L616 287Z" fill="#28567c" stroke="#111"></path><path d="M472 186L429 175L453 190Z" fill="#1995e0" stroke="#111"></path><path d="M453 190L429 175L431 245Z" fill="#1e2b39" stroke="#111"></path><path d="M404 110L429 175L472 186Z" fill="#1e2b39" stroke="#111"></path><path d="M633 187L592 176L581 252Z" fill="#286594" stroke="#111"></path><path d="M574 151L553 152L572 172Z" fill="#191e25" stroke="#111"></path><path d="M572 172L553 152L504 217Z" fill="#1e2b39" stroke="#111"></path><path d="M385 204L374 257L425 246Z" fill="#191e25" stroke="#111"></path><path d="M398 299L348 292L408 325Z" fill="#2775ad" stroke="#111"></path><path d="M429 175L385 204L425 246Z" fill="#111111" stroke="#111"></path><path d="M592 176L574 151L572 172Z" fill="#286594" stroke="#111"></path><path d="M334 428L434 403L412 349Z" fill="#191e25" stroke="#111"></path><path d="M412 349L434 403L477 378Z" fill="#00a6fb" stroke="#111"></path><path d="M631 407L607 311L584 310Z" fill="#111111" stroke="#111"></path><path d="M665 352L645 337L631 407Z" fill="#28567c" stroke="#111"></path><path d="M607 311L645 337L616 287Z" fill="#286594" stroke="#111"></path><path d="M646 195L633 187L616 269Z" fill="#1e2b39" stroke="#111"></path><path d="M592 176L595 126L574 151Z" fill="#286594" stroke="#111"></path><path d="M646 195L616 269L629 268Z" fill="#00a6fb" stroke="#111"></path><path d="M353 184L348 273L374 257Z" fill="#286594" stroke="#111"></path><path d="M374 257L348 292L398 299Z" fill="#286594" stroke="#111"></path><path d="M645 337L662 282L616 287Z" fill="#264765" stroke="#111"></path><path d="M348 273L348 292L374 257Z" fill="#2285c6" stroke="#111"></path><path d="M348 273L344 293L348 292Z" fill="#1e2b39" stroke="#111"></path><path d="M348 292L330 356L408 325Z" fill="#1995e0" stroke="#111"></path><path d="M666 256L646 195L629 268Z" fill="#28567c" stroke="#111"></path><path d="M662 282L666 256L629 268Z" fill="#28567c" stroke="#111"></path><path d="M666 185L625 160L633 187Z" fill="#2285c6" stroke="#111"></path><path d="M633 187L625 160L592 176Z" fill="#1995e0" stroke="#111"></path><path d="M595 126L540 112L574 151Z" fill="#2775ad" stroke="#111"></path><path d="M574 151L540 112L553 152Z" fill="#2775ad" stroke="#111"></path><path d="M553 152L540 112L472 186Z" fill="#111111" stroke="#111"></path><path d="M625 160L595 126L592 176Z" fill="#264765" stroke="#111"></path><path d="M375 146L353 184L385 204Z" fill="#2775ad" stroke="#111"></path><path d="M385 204L353 184L374 257Z" fill="#1995e0" stroke="#111"></path><path d="M348 273L304 265L344 293Z" fill="#28567c" stroke="#111"></path><path d="M375 146L385 204L429 175Z" fill="#191e25" stroke="#111"></path><path d="M631 407L584 310L572 446Z" fill="#2285c6" stroke="#111"></path><path d="M645 337L699 322L662 282Z" fill="#264765" stroke="#111"></path><path d="M702 268L690 252L666 256Z" fill="#23394e" stroke="#111"></path><path d="M404 110L375 146L429 175Z" fill="#191e25" stroke="#111"></path><path d="M572 446L584 310L477 378Z" fill="#286594" stroke="#111"></path><path d="M470 457L572 446L477 378Z" fill="#111111" stroke="#111"></path><path d="M646 195L666 185L633 187Z" fill="#191e25" stroke="#111"></path><path d="M625 160L629 55L595 126Z" fill="#2775ad" stroke="#111"></path><path d="M678 191L666 185L646 195Z" fill="#111111" stroke="#111"></path><path d="M507 530L573 447L572 446Z" fill="#1995e0" stroke="#111"></path><path d="M572 446L573 447L631 407Z" fill="#2285c6" stroke="#111"></path><path d="M445 454L470 457L434 403Z" fill="#111111" stroke="#111"></path><path d="M434 403L470 457L477 378Z" fill="#111111" stroke="#111"></path><path d="M702 268L666 256L662 282Z" fill="#286594" stroke="#111"></path><path d="M666 256L678 191L646 195Z" fill="#00a6fb" stroke="#111"></path><path d="M391 461L445 454L434 403Z" fill="#23394e" stroke="#111"></path><path d="M690 252L678 191L666 256Z" fill="#2285c6" stroke="#111"></path><path d="M666 185L687 162L625 160Z" fill="#264765" stroke="#111"></path><path d="M540 112L404 110L472 186Z" fill="#1995e0" stroke="#111"></path><path d="M297 286L330 356L344 293Z" fill="#111111" stroke="#111"></path><path d="M344 293L330 356L348 292Z" fill="#1995e0" stroke="#111"></path><path d="M699 322L702 268L662 282Z" fill="#1e2b39" stroke="#111"></path><path d="M690 252L749 219L678 191Z" fill="#264765" stroke="#111"></path><path d="M710 350L699 322L665 352Z" fill="#2775ad" stroke="#111"></path><path d="M665 352L699 322L645 337Z" fill="#2285c6" stroke="#111"></path><path d="M299 177L304 265L353 184Z" fill="#1995e0" stroke="#111"></path><path d="M353 184L304 265L348 273Z" fill="#111111" stroke="#111"></path><path d="M248 331L324 369L330 356Z" fill="#2285c6" stroke="#111"></path><path d="M330 356L324 369L412 349Z" fill="#1995e0" stroke="#111"></path><path d="M304 265L297 286L344 293Z" fill="#28567c" stroke="#111"></path><path d="M404 110L383 99L375 146Z" fill="#1e2b39" stroke="#111"></path><path d="M375 146L323 140L353 184Z" fill="#191e25" stroke="#111"></path><path d="M425 62L397 96L404 110Z" fill="#264765" stroke="#111"></path><path d="M699 322L718 280L702 268Z" fill="#23394e" stroke="#111"></path><path d="M702 268L749 219L690 252Z" fill="#191e25" stroke="#111"></path><path d="M397 96L383 99L404 110Z" fill="#23394e" stroke="#111"></path><path d="M749 219L687 162L678 191Z" fill="#1e2b39" stroke="#111"></path><path d="M678 191L687 162L666 185Z" fill="#1e2b39" stroke="#111"></path><path d="M642 460L674 408L631 407Z" fill="#00a6fb" stroke="#111"></path><path d="M631 407L674 408L665 352Z" fill="#28567c" stroke="#111"></path><path d="M699 322L723 350L718 280Z" fill="#00a6fb" stroke="#111"></path><path d="M352 451L391 461L434 403Z" fill="#286594" stroke="#111"></path><path d="M478 540L507 530L470 457Z" fill="#2775ad" stroke="#111"></path><path d="M708 367L710 350L665 352Z" fill="#00a6fb" stroke="#111"></path><path d="M674 408L708 367L665 352Z" fill="#286594" stroke="#111"></path><path d="M330 130L323 140L375 146Z" fill="#191e25" stroke="#111"></path><path d="M304 265L250 297L297 286Z" fill="#23394e" stroke="#111"></path><path d="M383 99L330 130L375 146Z" fill="#00a6fb" stroke="#111"></path><path d="M462 40L425 62L540 112Z" fill="#111111" stroke="#111"></path><path d="M540 112L425 62L404 110Z" fill="#2775ad" stroke="#111"></path><path d="M397 96L425 62L383 99Z" fill="#286594" stroke="#111"></path><path d="M320 72L279 140L330 130Z" fill="#264765" stroke="#111"></path><path d="M323 140L299 177L353 184Z" fill="#286594" stroke="#111"></path><path d="M567 540L618 473L573 447Z" fill="#23394e" stroke="#111"></path><path d="M573 447L618 473L631 407Z" fill="#1995e0" stroke="#111"></path><path d="M638 487L618 473L595 540Z" fill="#23394e" stroke="#111"></path><path d="M324 369L334 428L412 349Z" fill="#111111" stroke="#111"></path><path d="M331 431L334 428L324 369Z" fill="#111111" stroke="#111"></path><path d="M618 473L642 460L631 407Z" fill="#28567c" stroke="#111"></path><path d="M748 441L758 392L708 367Z" fill="#264765" stroke="#111"></path><path d="M758 392L723 350L708 367Z" fill="#191e25" stroke="#111"></path><path d="M708 367L723 350L710 350Z" fill="#2775ad" stroke="#111"></path><path d="M710 350L723 350L699 322Z" fill="#23394e" stroke="#111"></path><path d="M334 428L352 451L434 403Z" fill="#2775ad" stroke="#111"></path><path d="M279 441L331 431L324 369Z" fill="#1e2b39" stroke="#111"></path><path d="M334 428L331 431L352 451Z" fill="#23394e" stroke="#111"></path><path d="M520 22L462 40L540 112Z" fill="#00a6fb" stroke="#111"></path><path d="M629 55L540 112L595 126Z" fill="#2775ad" stroke="#111"></path><path d="M279 140L289 165L323 140Z" fill="#264765" stroke="#111"></path><path d="M323 140L289 165L299 177Z" fill="#191e25" stroke="#111"></path><path d="M299 177L264 208L304 265Z" fill="#111111" stroke="#111"></path><path d="M271 178L264 208L299 177Z" fill="#286594" stroke="#111"></path><path d="M297 286L248 331L330 356Z" fill="#286594" stroke="#111"></path><path d="M791 217L749 219L817 297Z" fill="#00a6fb" stroke="#111"></path><path d="M718 280L749 219L702 268Z" fill="#00a6fb" stroke="#111"></path><path d="M507 530L572 446L470 457Z" fill="#2775ad" stroke="#111"></path><path d="M618 473L638 487L642 460Z" fill="#00a6fb" stroke="#111"></path><path d="M748 441L708 367L674 408Z" fill="#264765" stroke="#111"></path><path d="M717 109L625 160L687 162Z" fill="#2285c6" stroke="#111"></path><path d="M717 109L629 55L625 160Z" fill="#1995e0" stroke="#111"></path><path d="M264 208L258 221L304 265Z" fill="#2285c6" stroke="#111"></path><path d="M549 20L520 22L540 112Z" fill="#2775ad" stroke="#111"></path><path d="M263 183L271 178L279 140Z" fill="#191e25" stroke="#111"></path><path d="M289 165L271 178L299 177Z" fill="#1995e0" stroke="#111"></path><path d="M264 208L246 225L258 221Z" fill="#28567c" stroke="#111"></path><path d="M352 451L339 467L391 461Z" fill="#00a6fb" stroke="#111"></path><path d="M478 540L470 457L445 454Z" fill="#111111" stroke="#111"></path><path d="M331 431L339 467L352 451Z" fill="#00a6fb" stroke="#111"></path><path d="M308 476L339 467L331 431Z" fill="#2285c6" stroke="#111"></path><path d="M478 540L445 454L405 540Z" fill="#111111" stroke="#111"></path><path d="M258 221L250 297L304 265Z" fill="#28567c" stroke="#111"></path><path d="M629 55L549 20L540 112Z" fill="#23394e" stroke="#111"></path><path d="M279 140L271 178L289 165Z" fill="#2285c6" stroke="#111"></path><path d="M271 178L263 183L264 208Z" fill="#00a6fb" stroke="#111"></path><path d="M448 7L435 22L462 40Z" fill="#00a6fb" stroke="#111"></path><path d="M462 40L435 22L425 62Z" fill="#28567c" stroke="#111"></path><path d="M368 0L320 72L383 99Z" fill="#23394e" stroke="#111"></path><path d="M330 130L279 140L323 140Z" fill="#1e2b39" stroke="#111"></path><path d="M448 7L462 40L459 0Z" fill="#23394e" stroke="#111"></path><path d="M320 72L330 130L383 99Z" fill="#23394e" stroke="#111"></path><path d="M250 297L248 331L297 286Z" fill="#2775ad" stroke="#111"></path><path d="M234 195L246 225L264 208Z" fill="#2775ad" stroke="#111"></path><path d="M258 221L246 225L250 297Z" fill="#1e2b39" stroke="#111"></path><path d="M250 297L182 296L248 331Z" fill="#23394e" stroke="#111"></path><path d="M234 195L264 208L263 183Z" fill="#1995e0" stroke="#111"></path><path d="M397 533L445 454L391 461Z" fill="#2285c6" stroke="#111"></path><path d="M507 530L567 540L573 447Z" fill="#191e25" stroke="#111"></path><path d="M724 106L717 109L776 139Z" fill="#23394e" stroke="#111"></path><path d="M551 580L567 540L507 530Z" fill="#28567c" stroke="#111"></path><path d="M501 0L462 40L520 22Z" fill="#00a6fb" stroke="#111"></path><path d="M381 0L383 99L425 62Z" fill="#2285c6" stroke="#111"></path><path d="M381 0L425 62L435 22Z" fill="#00a6fb" stroke="#111"></path><path d="M549 20L501 0L520 22Z" fill="#264765" stroke="#111"></path><path d="M724 106L718 99L717 109Z" fill="#1995e0" stroke="#111"></path><path d="M717 109L718 99L629 55Z" fill="#00a6fb" stroke="#111"></path><path d="M776 139L717 109L687 162Z" fill="#286594" stroke="#111"></path><path d="M501 0L459 0L462 40Z" fill="#28567c" stroke="#111"></path><path d="M448 7L442 0L435 22Z" fill="#1995e0" stroke="#111"></path><path d="M748 441L674 408L642 460Z" fill="#286594" stroke="#111"></path><path d="M817 297L749 219L718 280Z" fill="#111111" stroke="#111"></path><path d="M567 540L594 540L618 473Z" fill="#1995e0" stroke="#111"></path><path d="M728 526L748 441L642 460Z" fill="#1995e0" stroke="#111"></path><path d="M384 540L397 533L373 540Z" fill="#1995e0" stroke="#111"></path><path d="M594 540L595 540L618 473Z" fill="#23394e" stroke="#111"></path><path d="M244 416L279 441L324 369Z" fill="#23394e" stroke="#111"></path><path d="M373 540L397 533L391 461Z" fill="#264765" stroke="#111"></path><path d="M459 0L442 0L448 7Z" fill="#23394e" stroke="#111"></path><path d="M279 441L308 476L331 431Z" fill="#264765" stroke="#111"></path><path d="M228 185L234 195L263 183Z" fill="#00a6fb" stroke="#111"></path><path d="M246 225L182 296L250 297Z" fill="#1e2b39" stroke="#111"></path><path d="M228 185L263 183L279 140Z" fill="#286594" stroke="#111"></path><path d="M397 533L405 540L445 454Z" fill="#00a6fb" stroke="#111"></path><path d="M399 549L405 540L397 533Z" fill="#111111" stroke="#111"></path><path d="M604 0L580 0L629 55Z" fill="#111111" stroke="#111"></path><path d="M629 55L580 0L549 20Z" fill="#1e2b39" stroke="#111"></path><path d="M549 20L580 0L501 0Z" fill="#23394e" stroke="#111"></path><path d="M245 86L228 185L279 140Z" fill="#264765" stroke="#111"></path><path d="M179 226L182 296L246 225Z" fill="#1e2b39" stroke="#111"></path><path d="M373 540L391 461L339 467Z" fill="#264765" stroke="#111"></path><path d="M605 -3L604 0L672 0Z" fill="#1e2b39" stroke="#111"></path><path d="M787 352L718 280L723 350Z" fill="#111111" stroke="#111"></path><path d="M749 219L776 139L687 162Z" fill="#286594" stroke="#111"></path><path d="M758 392L787 352L723 350Z" fill="#286594" stroke="#111"></path><path d="M384 540L399 549L397 533Z" fill="#1e2b39" stroke="#111"></path><path d="M405 540L399 549L478 540Z" fill="#191e25" stroke="#111"></path><path d="M478 540L551 580L507 530Z" fill="#286594" stroke="#111"></path><path d="M567 540L551 580L594 540Z" fill="#2285c6" stroke="#111"></path><path d="M594 540L551 580L595 540Z" fill="#1995e0" stroke="#111"></path><path d="M767 477L748 441L728 526Z" fill="#00a6fb" stroke="#111"></path><path d="M758 392L773 399L787 352Z" fill="#286594" stroke="#111"></path><path d="M672 0L604 0L629 55Z" fill="#23394e" stroke="#111"></path><path d="M604 0L605 -3L580 0Z" fill="#23394e" stroke="#111"></path><path d="M580 0L605 -3L501 0Z" fill="#2775ad" stroke="#111"></path><path d="M501 0L744 -46L459 0Z" fill="#00a6fb" stroke="#111"></path><path d="M459 0L193 -48L442 0Z" fill="#264765" stroke="#111"></path><path d="M748 441L773 399L758 392Z" fill="#264765" stroke="#111"></path><path d="M338 540L373 540L339 467Z" fill="#264765" stroke="#111"></path><path d="M384 540L357 580L399 549Z" fill="#00a6fb" stroke="#111"></path><path d="M248 331L244 416L324 369Z" fill="#1e2b39" stroke="#111"></path><path d="M279 441L275 486L308 476Z" fill="#2775ad" stroke="#111"></path><path d="M308 476L338 540L339 467Z" fill="#264765" stroke="#111"></path><path d="M234 419L244 416L248 331Z" fill="#111111" stroke="#111"></path><path d="M442 0L381 0L435 22Z" fill="#1e2b39" stroke="#111"></path><path d="M193 -48L381 0L442 0Z" fill="#23394e" stroke="#111"></path><path d="M817 201L798 205L791 217Z" fill="#00a6fb" stroke="#111"></path><path d="M791 217L798 205L749 219Z" fill="#2775ad" stroke="#111"></path><path d="M803 174L776 139L749 219Z" fill="#2775ad" stroke="#111"></path><path d="M724 106L802 78L718 99Z" fill="#191e25" stroke="#111"></path><path d="M718 99L672 0L629 55Z" fill="#23394e" stroke="#111"></path><path d="M193 -48L368 0L381 0Z" fill="#191e25" stroke="#111"></path><path d="M381 0L368 0L383 99Z" fill="#2775ad" stroke="#111"></path><path d="M320 72L245 86L279 140Z" fill="#264765" stroke="#111"></path><path d="M164 411L234 419L248 331Z" fill="#28567c" stroke="#111"></path><path d="M244 416L234 419L279 441Z" fill="#23394e" stroke="#111"></path><path d="M850 372L807 337L787 352Z" fill="#2775ad" stroke="#111"></path><path d="M787 352L817 297L718 280Z" fill="#264765" stroke="#111"></path><path d="M357 580L551 580L478 540Z" fill="#28567c" stroke="#111"></path><path d="M595 540L646 565L638 487Z" fill="#1995e0" stroke="#111"></path><path d="M368 0L325 20L320 72Z" fill="#264765" stroke="#111"></path><path d="M777 451L790 400L773 399Z" fill="#111111" stroke="#111"></path><path d="M773 399L790 400L787 352Z" fill="#1995e0" stroke="#111"></path><path d="M210 445L275 486L279 441Z" fill="#00a6fb" stroke="#111"></path><path d="M807 337L817 297L787 352Z" fill="#1995e0" stroke="#111"></path><path d="M299 540L338 540L308 476Z" fill="#191e25" stroke="#111"></path><path d="M373 540L357 580L384 540Z" fill="#2775ad" stroke="#111"></path><path d="M399 549L357 580L478 540Z" fill="#111111" stroke="#111"></path><path d="M817 201L803 174L798 205Z" fill="#2775ad" stroke="#111"></path><path d="M798 205L803 174L749 219Z" fill="#111111" stroke="#111"></path><path d="M797 114L783 119L808 133Z" fill="#264765" stroke="#111"></path><path d="M776 139L783 119L724 106Z" fill="#286594" stroke="#111"></path><path d="M834 243L817 201L791 217Z" fill="#2285c6" stroke="#111"></path><path d="M808 133L783 119L776 139Z" fill="#00a6fb" stroke="#111"></path><path d="M290 28L245 86L320 72Z" fill="#2775ad" stroke="#111"></path><path d="M718 -9L672 0L718 99Z" fill="#1995e0" stroke="#111"></path><path d="M368 0L337 0L325 20Z" fill="#23394e" stroke="#111"></path><path d="M325 20L290 28L320 72Z" fill="#111111" stroke="#111"></path><path d="M193 -48L337 0L368 0Z" fill="#286594" stroke="#111"></path><path d="M551 580L646 565L595 540Z" fill="#28567c" stroke="#111"></path><path d="M748 441L777 451L773 399Z" fill="#23394e" stroke="#111"></path><path d="M193 188L234 195L228 185Z" fill="#1e2b39" stroke="#111"></path><path d="M179 226L246 225L234 195Z" fill="#00a6fb" stroke="#111"></path><path d="M186 86L193 188L228 185Z" fill="#00a6fb" stroke="#111"></path><path d="M767 477L777 451L748 441Z" fill="#1e2b39" stroke="#111"></path><path d="M850 372L839 331L807 337Z" fill="#111111" stroke="#111"></path><path d="M337 0L290 28L325 20Z" fill="#2775ad" stroke="#111"></path><path d="M193 188L179 226L234 195Z" fill="#23394e" stroke="#111"></path><path d="M839 331L834 243L817 297Z" fill="#111111" stroke="#111"></path><path d="M817 297L834 243L791 217Z" fill="#286594" stroke="#111"></path><path d="M839 331L817 297L807 337Z" fill="#1995e0" stroke="#111"></path><path d="M728 526L642 460L638 487Z" fill="#191e25" stroke="#111"></path><path d="M808 133L776 139L803 174Z" fill="#1e2b39" stroke="#111"></path><path d="M783 119L802 78L724 106Z" fill="#111111" stroke="#111"></path><path d="M808 133L860 135L820 119Z" fill="#286594" stroke="#111"></path><path d="M808 133L803 174L860 135Z" fill="#23394e" stroke="#111"></path><path d="M246 540L299 540L275 486Z" fill="#2775ad" stroke="#111"></path><path d="M275 486L299 540L308 476Z" fill="#1995e0" stroke="#111"></path><path d="M338 540L357 580L373 540Z" fill="#191e25" stroke="#111"></path><path d="M646 565L728 526L638 487Z" fill="#264765" stroke="#111"></path><path d="M810 443L790 400L777 451Z" fill="#286594" stroke="#111"></path><path d="M850 372L787 352L790 400Z" fill="#00a6fb" stroke="#111"></path><path d="M299 540L357 580L338 540Z" fill="#111111" stroke="#111"></path><path d="M164 411L210 445L234 419Z" fill="#23394e" stroke="#111"></path><path d="M234 419L210 445L279 441Z" fill="#286594" stroke="#111"></path><path d="M160 263L166 317L182 296Z" fill="#2775ad" stroke="#111"></path><path d="M182 296L166 317L248 331Z" fill="#286594" stroke="#111"></path><path d="M149 257L160 263L179 226Z" fill="#286594" stroke="#111"></path><path d="M179 226L160 263L182 296Z" fill="#2285c6" stroke="#111"></path><path d="M807 531L810 443L767 477Z" fill="#28567c" stroke="#111"></path><path d="M767 477L810 443L777 451Z" fill="#2775ad" stroke="#111"></path><path d="M646 565L732 540L728 526Z" fill="#264765" stroke="#111"></path><path d="M728 526L776 540L767 477Z" fill="#1995e0" stroke="#111"></path><path d="M860 135L803 174L817 201Z" fill="#264765" stroke="#111"></path><path d="M808 133L820 119L797 114Z" fill="#111111" stroke="#111"></path><path d="M767 0L718 -9L718 99Z" fill="#264765" stroke="#111"></path><path d="M802 78L783 119L797 114Z" fill="#2775ad" stroke="#111"></path><path d="M672 0L744 -46L605 -3Z" fill="#00a6fb" stroke="#111"></path><path d="M605 -3L744 -46L501 0Z" fill="#191e25" stroke="#111"></path><path d="M820 119L802 78L797 114Z" fill="#1995e0" stroke="#111"></path><path d="M138 191L179 226L193 188Z" fill="#286594" stroke="#111"></path><path d="M117 220L149 257L179 226Z" fill="#2285c6" stroke="#111"></path><path d="M160 263L149 257L166 317Z" fill="#264765" stroke="#111"></path><path d="M861 386L850 372L790 400Z" fill="#111111" stroke="#111"></path><path d="M940 285L905 228L834 243Z" fill="#00a6fb" stroke="#111"></path><path d="M921 184L860 135L817 201Z" fill="#23394e" stroke="#111"></path><path d="M166 317L164 411L248 331Z" fill="#264765" stroke="#111"></path><path d="M239 540L246 540L275 486Z" fill="#2775ad" stroke="#111"></path><path d="M127 389L164 411L166 317Z" fill="#286594" stroke="#111"></path><path d="M173 78L186 86L191 0Z" fill="#286594" stroke="#111"></path><path d="M245 86L186 86L228 185Z" fill="#264765" stroke="#111"></path><path d="M186 86L245 86L223 0Z" fill="#00a6fb" stroke="#111"></path><path d="M239 540L275 486L210 445Z" fill="#23394e" stroke="#111"></path><path d="M299 540L246 540L357 580Z" fill="#2775ad" stroke="#111"></path><path d="M810 443L861 386L790 400Z" fill="#2775ad" stroke="#111"></path><path d="M850 372L909 375L839 331Z" fill="#111111" stroke="#111"></path><path d="M909 375L861 386L933 403Z" fill="#1995e0" stroke="#111"></path><path d="M170 484L239 540L210 445Z" fill="#2285c6" stroke="#111"></path><path d="M246 540L195 567L357 580Z" fill="#28567c" stroke="#111"></path><path d="M126 134L138 191L193 188Z" fill="#28567c" stroke="#111"></path><path d="M112 367L127 389L166 317Z" fill="#264765" stroke="#111"></path><path d="M802 78L767 0L718 99Z" fill="#1e2b39" stroke="#111"></path><path d="M824 566L776 540L732 540Z" fill="#111111" stroke="#111"></path><path d="M732 540L776 540L728 526Z" fill="#23394e" stroke="#111"></path><path d="M905 228L817 201L834 243Z" fill="#00a6fb" stroke="#111"></path><path d="M820 119L867 47L802 78Z" fill="#191e25" stroke="#111"></path><path d="M802 78L808 0L767 0Z" fill="#28567c" stroke="#111"></path><path d="M224 0L245 86L290 28Z" fill="#23394e" stroke="#111"></path><path d="M186 86L151 97L193 188Z" fill="#1e2b39" stroke="#111"></path><path d="M110 186L117 220L138 191Z" fill="#28567c" stroke="#111"></path><path d="M138 191L117 220L179 226Z" fill="#111111" stroke="#111"></path><path d="M193 -48L224 0L337 0Z" fill="#264765" stroke="#111"></path><path d="M337 0L224 0L290 28Z" fill="#111111" stroke="#111"></path><path d="M193 -48L223 0L224 0Z" fill="#00a6fb" stroke="#111"></path><path d="M224 0L223 0L245 86Z" fill="#28567c" stroke="#111"></path><path d="M107 339L166 317L92 313Z" fill="#28567c" stroke="#111"></path><path d="M158 477L170 484L149 462Z" fill="#2285c6" stroke="#111"></path><path d="M170 484L210 445L149 462Z" fill="#286594" stroke="#111"></path><path d="M127 82L151 97L173 78Z" fill="#191e25" stroke="#111"></path><path d="M173 78L151 97L186 86Z" fill="#111111" stroke="#111"></path><path d="M776 540L807 531L767 477Z" fill="#264765" stroke="#111"></path><path d="M767 0L744 -46L718 -9Z" fill="#2775ad" stroke="#111"></path><path d="M718 -9L744 -46L672 0Z" fill="#1995e0" stroke="#111"></path><path d="M808 0L744 -46L767 0Z" fill="#1995e0" stroke="#111"></path><path d="M149 462L210 445L164 411Z" fill="#111111" stroke="#111"></path><path d="M170 484L182 542L239 540Z" fill="#1995e0" stroke="#111"></path><path d="M138 461L149 462L164 411Z" fill="#2775ad" stroke="#111"></path><path d="M940 285L834 243L839 331Z" fill="#00a6fb" stroke="#111"></path><path d="M92 313L166 317L149 257Z" fill="#00a6fb" stroke="#111"></path><path d="M127 389L138 461L164 411Z" fill="#264765" stroke="#111"></path><path d="M107 339L112 367L166 317Z" fill="#2775ad" stroke="#111"></path><path d="M151 97L126 134L193 188Z" fill="#2285c6" stroke="#111"></path><path d="M126 134L110 186L138 191Z" fill="#28567c" stroke="#111"></path><path d="M93 219L92 313L149 257Z" fill="#264765" stroke="#111"></path><path d="M858 30L808 0L802 78Z" fill="#2285c6" stroke="#111"></path><path d="M867 47L820 119L860 135Z" fill="#28567c" stroke="#111"></path><path d="M42 383L138 461L127 389Z" fill="#111111" stroke="#111"></path><path d="M149 462L138 461L158 477Z" fill="#23394e" stroke="#111"></path><path d="M107 339L93 362L112 367Z" fill="#191e25" stroke="#111"></path><path d="M112 367L93 362L127 389Z" fill="#00a6fb" stroke="#111"></path><path d="M93 219L149 257L117 220Z" fill="#1995e0" stroke="#111"></path><path d="M74 222L93 219L110 186Z" fill="#2285c6" stroke="#111"></path><path d="M110 186L93 219L117 220Z" fill="#191e25" stroke="#111"></path><path d="M893 469L861 386L810 443Z" fill="#1e2b39" stroke="#111"></path><path d="M861 386L909 375L850 372Z" fill="#191e25" stroke="#111"></path><path d="M151 97L112 123L126 134Z" fill="#28567c" stroke="#111"></path><path d="M223 0L191 0L186 86Z" fill="#28567c" stroke="#111"></path><path d="M193 -48L191 0L223 0Z" fill="#23394e" stroke="#111"></path><path d="M14 327L90 318L92 313Z" fill="#286594" stroke="#111"></path><path d="M92 313L90 318L107 339Z" fill="#28567c" stroke="#111"></path><path d="M85 540L182 542L158 477Z" fill="#111111" stroke="#111"></path><path d="M158 477L182 542L170 484Z" fill="#23394e" stroke="#111"></path><path d="M239 540L195 567L246 540Z" fill="#23394e" stroke="#111"></path><path d="M127 82L112 123L151 97Z" fill="#23394e" stroke="#111"></path><path d="M126 134L112 123L110 186Z" fill="#2775ad" stroke="#111"></path><path d="M90 318L93 362L107 339Z" fill="#28567c" stroke="#111"></path><path d="M114 1L127 82L173 78Z" fill="#2775ad" stroke="#111"></path><path d="M960 209L921 184L905 228Z" fill="#264765" stroke="#111"></path><path d="M905 228L921 184L817 201Z" fill="#111111" stroke="#111"></path><path d="M824 566L838 540L807 531Z" fill="#00a6fb" stroke="#111"></path><path d="M807 531L838 540L810 443Z" fill="#1995e0" stroke="#111"></path><path d="M824 566L807 531L776 540Z" fill="#28567c" stroke="#111"></path><path d="M824 566L732 540L646 565Z" fill="#191e25" stroke="#111"></path><path d="M85 540L195 567L182 542Z" fill="#1e2b39" stroke="#111"></path><path d="M182 542L195 567L239 540Z" fill="#00a6fb" stroke="#111"></path><path d="M902 75L867 47L860 135Z" fill="#23394e" stroke="#111"></path><path d="M867 47L858 30L802 78Z" fill="#111111" stroke="#111"></path><path d="M808 0L866 0L744 -46Z" fill="#1995e0" stroke="#111"></path><path d="M551 580L824 566L646 565Z" fill="#28567c" stroke="#111"></path><path d="M34 202L74 222L110 186Z" fill="#00a6fb" stroke="#111"></path><path d="M93 219L74 222L92 313Z" fill="#2285c6" stroke="#111"></path><path d="M90 318L42 383L93 362Z" fill="#23394e" stroke="#111"></path><path d="M34 202L110 186L112 123Z" fill="#1e2b39" stroke="#111"></path><path d="M838 540L893 469L810 443Z" fill="#23394e" stroke="#111"></path><path d="M859 540L893 469L838 540Z" fill="#00a6fb" stroke="#111"></path><path d="M939 357L940 285L909 375Z" fill="#2775ad" stroke="#111"></path><path d="M909 375L940 285L839 331Z" fill="#191e25" stroke="#111"></path><path d="M933 403L939 357L909 375Z" fill="#1e2b39" stroke="#111"></path><path d="M824 566L859 540L838 540Z" fill="#286594" stroke="#111"></path><path d="M955 169L926 136L921 184Z" fill="#2775ad" stroke="#111"></path><path d="M921 184L926 136L860 135Z" fill="#2285c6" stroke="#111"></path><path d="M889 0L866 0L858 30Z" fill="#2775ad" stroke="#111"></path><path d="M926 136L902 75L860 135Z" fill="#2285c6" stroke="#111"></path><path d="M960 377L933 403L941 491Z" fill="#00a6fb" stroke="#111"></path><path d="M893 469L933 403L861 386Z" fill="#264765" stroke="#111"></path><path d="M744 -46L193 -48L459 0Z" fill="#1995e0" stroke="#111"></path><path d="M191 0L114 1L173 78Z" fill="#264765" stroke="#111"></path><path d="M858 30L866 0L808 0Z" fill="#28567c" stroke="#111"></path><path d="M889 0L858 30L867 47Z" fill="#23394e" stroke="#111"></path><path d="M965 306L960 293L940 285Z" fill="#2285c6" stroke="#111"></path><path d="M940 285L960 209L905 228Z" fill="#264765" stroke="#111"></path><path d="M965 306L940 285L966 324Z" fill="#28567c" stroke="#111"></path><path d="M960 127L927 50L902 75Z" fill="#111111" stroke="#111"></path><path d="M960 293L960 209L940 285Z" fill="#191e25" stroke="#111"></path><path d="M966 324L940 285L939 357Z" fill="#23394e" stroke="#111"></path><path d="M960 293L965 306L960 209Z" fill="#2775ad" stroke="#111"></path><path d="M983 102L960 196L960 209Z" fill="#191e25" stroke="#111"></path><path d="M960 209L960 196L921 184Z" fill="#191e25" stroke="#111"></path><path d="M960 357L939 357L960 377Z" fill="#2285c6" stroke="#111"></path><path d="M960 357L960 354L939 357Z" fill="#23394e" stroke="#111"></path><path d="M960 196L955 169L921 184Z" fill="#2285c6" stroke="#111"></path><path d="M927 50L889 0L867 47Z" fill="#00a6fb" stroke="#111"></path><path d="M960 377L939 357L933 403Z" fill="#28567c" stroke="#111"></path><path d="M960 354L966 324L939 357Z" fill="#191e25" stroke="#111"></path><path d="M193 -48L146 -19L191 0Z" fill="#00a6fb" stroke="#111"></path><path d="M0 183L34 202L112 123Z" fill="#2775ad" stroke="#111"></path><path d="M960 357L966 324L960 354Z" fill="#1e2b39" stroke="#111"></path><path d="M983 102L955 169L960 196Z" fill="#28567c" stroke="#111"></path><path d="M941 491L933 403L893 469Z" fill="#286594" stroke="#111"></path><path d="M960 357L960 377L966 324Z" fill="#00a6fb" stroke="#111"></path><path d="M927 50L867 47L902 75Z" fill="#2285c6" stroke="#111"></path><path d="M866 0L960 -30L744 -46Z" fill="#111111" stroke="#111"></path><path d="M14 327L42 383L90 318Z" fill="#00a6fb" stroke="#111"></path><path d="M93 362L42 383L127 389Z" fill="#1e2b39" stroke="#111"></path><path d="M138 461L85 540L158 477Z" fill="#23394e" stroke="#111"></path><path d="M53 69L112 123L127 82Z" fill="#1e2b39" stroke="#111"></path><path d="M0 279L14 327L92 313Z" fill="#264765" stroke="#111"></path><path d="M146 -19L114 1L191 0Z" fill="#1e2b39" stroke="#111"></path><path d="M960 127L902 75L926 136Z" fill="#00a6fb" stroke="#111"></path><path d="M983 102L960 127L955 169Z" fill="#191e25" stroke="#111"></path><path d="M955 169L960 127L926 136Z" fill="#191e25" stroke="#111"></path><path d="M983 102L960 209L965 306Z" fill="#111111" stroke="#111"></path><path d="M936 540L941 491L893 469Z" fill="#2775ad" stroke="#111"></path><path d="M936 540L893 469L859 540Z" fill="#28567c" stroke="#111"></path><path d="M0 279L92 313L74 222Z" fill="#191e25" stroke="#111"></path><path d="M114 1L53 69L127 82Z" fill="#264765" stroke="#111"></path><path d="M0 247L0 279L74 222Z" fill="#28567c" stroke="#111"></path><path d="M85 540L138 461L40 530Z" fill="#2775ad" stroke="#111"></path><path d="M56 540L85 540L40 530Z" fill="#28567c" stroke="#111"></path><path d="M0 247L74 222L0 236Z" fill="#1995e0" stroke="#111"></path><path d="M0 236L74 222L34 202Z" fill="#2775ad" stroke="#111"></path><path d="M0 219L0 236L34 202Z" fill="#191e25" stroke="#111"></path><path d="M824 566L936 540L859 540Z" fill="#1995e0" stroke="#111"></path><path d="M941 491L960 536L960 377Z" fill="#191e25" stroke="#111"></path><path d="M0 183L0 219L34 202Z" fill="#2775ad" stroke="#111"></path><path d="M966 324L983 102L965 306Z" fill="#1995e0" stroke="#111"></path><path d="M960 127L983 102L927 50Z" fill="#111111" stroke="#111"></path><path d="M927 50L957 0L889 0Z" fill="#00a6fb" stroke="#111"></path><path d="M0 279L0 344L14 327Z" fill="#28567c" stroke="#111"></path><path d="M14 327L0 344L42 383Z" fill="#111111" stroke="#111"></path><path d="M114 1L73 0L53 69Z" fill="#2285c6" stroke="#111"></path><path d="M53 69L0 183L112 123Z" fill="#2775ad" stroke="#111"></path><path d="M146 -19L73 0L114 1Z" fill="#1e2b39" stroke="#111"></path><path d="M193 -48L73 0L146 -19Z" fill="#2775ad" stroke="#111"></path><path d="M0 69L0 183L53 69Z" fill="#264765" stroke="#111"></path><path d="M-4 374L0 384L42 383Z" fill="#2285c6" stroke="#111"></path><path d="M-45 242L-4 374L0 344Z" fill="#264765" stroke="#111"></path><path d="M0 344L-4 374L42 383Z" fill="#191e25" stroke="#111"></path><path d="M-45 242L0 344L0 279Z" fill="#286594" stroke="#111"></path><path d="M-45 242L0 279L0 247Z" fill="#28567c" stroke="#111"></path><path d="M-45 242L0 247L0 236Z" fill="#23394e" stroke="#111"></path><path d="M-45 242L0 236L0 219Z" fill="#111111" stroke="#111"></path><path d="M0 424L138 461L42 383Z" fill="#264765" stroke="#111"></path><path d="M85 540L43 590L195 567Z" fill="#00a6fb" stroke="#111"></path><path d="M0 424L42 383L0 384Z" fill="#1e2b39" stroke="#111"></path><path d="M960 540L960 536L936 540Z" fill="#23394e" stroke="#111"></path><path d="M936 540L960 536L941 491Z" fill="#23394e" stroke="#111"></path><path d="M960 377L960 536L966 324Z" fill="#2775ad" stroke="#111"></path><path d="M966 324L960 552L983 102Z" fill="#1995e0" stroke="#111"></path><path d="M-4 374L0 424L0 384Z" fill="#264765" stroke="#111"></path><path d="M960 552L960 540L936 540Z" fill="#1e2b39" stroke="#111"></path><path d="M960 536L960 540L966 324Z" fill="#23394e" stroke="#111"></path><path d="M960 0L957 0L927 50Z" fill="#2285c6" stroke="#111"></path><path d="M889 0L960 -30L866 0Z" fill="#1e2b39" stroke="#111"></path><path d="M0 484L40 530L138 461Z" fill="#1995e0" stroke="#111"></path><path d="M983 102L960 0L927 50Z" fill="#264765" stroke="#111"></path><path d="M957 0L960 -30L889 0Z" fill="#1e2b39" stroke="#111"></path><path d="M824 566L960 552L936 540Z" fill="#2285c6" stroke="#111"></path><path d="M960 540L960 552L966 324Z" fill="#23394e" stroke="#111"></path><path d="M983 102L960 -4L960 0Z" fill="#1e2b39" stroke="#111"></path><path d="M960 0L960 -4L957 0Z" fill="#28567c" stroke="#111"></path><path d="M0 540L31 543L40 530Z" fill="#191e25" stroke="#111"></path><path d="M40 530L31 543L56 540Z" fill="#264765" stroke="#111"></path><path d="M56 540L43 590L85 540Z" fill="#191e25" stroke="#111"></path><path d="M0 68L0 69L53 69Z" fill="#111111" stroke="#111"></path><path d="M0 183L-45 242L0 219Z" fill="#1e2b39" stroke="#111"></path><path d="M8 0L0 68L53 69Z" fill="#191e25" stroke="#111"></path><path d="M0 69L-45 242L0 183Z" fill="#1e2b39" stroke="#111"></path><path d="M0 424L0 484L138 461Z" fill="#28567c" stroke="#111"></path><path d="M-31 540L0 484L0 424Z" fill="#2775ad" stroke="#111"></path><path d="M983 102L960 -30L960 -4Z" fill="#2285c6" stroke="#111"></path><path d="M960 -4L960 -30L957 0Z" fill="#1e2b39" stroke="#111"></path><path d="M0 68L-45 242L0 69Z" fill="#264765" stroke="#111"></path><path d="M-4 374L-31 540L0 424Z" fill="#286594" stroke="#111"></path><path d="M-31 540L0 495L0 484Z" fill="#2775ad" stroke="#111"></path><path d="M0 484L0 495L40 530Z" fill="#23394e" stroke="#111"></path><path d="M0 540L43 590L31 543Z" fill="#1995e0" stroke="#111"></path><path d="M31 543L43 590L56 540Z" fill="#23394e" stroke="#111"></path><path d="M195 567L43 590L357 580Z" fill="#28567c" stroke="#111"></path><path d="M357 580L43 590L551 580Z" fill="#28567c" stroke="#111"></path><path d="M73 0L8 0L53 69Z" fill="#191e25" stroke="#111"></path><path d="M0 68L0 0L-45 242Z" fill="#23394e" stroke="#111"></path><path d="M193 -48L8 0L73 0Z" fill="#191e25" stroke="#111"></path><path d="M-31 540L0 540L0 495Z" fill="#264765" stroke="#111"></path><path d="M0 495L0 540L40 530Z" fill="#1e2b39" stroke="#111"></path><path d="M193 -48L0 0L8 0Z" fill="#191e25" stroke="#111"></path><path d="M8 0L0 0L0 68Z" fill="#1995e0" stroke="#111"></path><path d="M-45 242L-31 540L-4 374Z" fill="#00a6fb" stroke="#111"></path><path d="M0 540L-31 540L43 590Z" fill="#00a6fb" stroke="#111"></path></g></svg>